{"title":"Breaking.Bad.S04E12.HDTV.x264.AC3.EspSub-Psycho","uid":6717951,"size":423237016,"categoryP":"video","categoryS":"tv_shows","magnet":"?xt=urn:btih:b35b3e0e273d3261bff4f3f93be56b7701ca4299&amp;dn=Breaking.Bad.S04E12.HDTV.x264.AC3.EspSub-Psycho&amp;tr=udp%3A%2F%2Ftracker.openbittorrent.com%3A80&amp;tr=udp%3A%2F%2Fopen.demonii.com%3A1337&amp;tr=udp%3A%2F%2Ftracker.coppersurfer.tk%3A6969&amp;tr=udp%3A%2F%2Fexodus.desync.com%3A6969","seeders":0,"leechers":1,"uploader":"Francisco1206","files":-1,"time":1317655491,"description":"Walter White, a struggling high school chemistry teacher is diagnosed with advanced lung cancer.\nHe turns to a life of crime, producing and selling methamphetamine accompanied by a former student, Jesse Pinkman with the aim of securing his family\\'s financial future before he dies.\n\nFormat                           : Matroska\nFile size                        : 399 MiB\nDuration                         : 45mn 45s\nOverall bit rate                 : 1 220 Kbps\nEncoded date                     : UTC 2011-10-03 13:13:59\nWriting application              : mkvmerge v5.0.0 (\\'Die Wahre Liebe\\') built on Sep 25 2011 20:33:49\nWriting library                  : libebml v1.2.2 + libmatroska v1.3.0\n\nVideo\nID                               : 1\nFormat                           : AVC\nFormat/Info                      : Advanced Video Codec\nFormat profile                   : &lt;a class=&quot;__cf_email__&quot; href=&quot;/cdn-cgi/l/email-protection&quot; data-cfemail=&quot;fcb19d9592bcb0cfd2cc&quot;&gt;[email&amp;#160;protected]&lt;/a&gt;&lt;script data-cfhash='f9e31' type=&quot;text/javascript&quot;&gt;\n/* &lt;![CDATA[ */!function(){try{var t=&quot;currentScript&quot;in document?document.currentScript:function(){for(var t=document.getElementsByTagName(&quot;script&quot;),e=t.length;e--;)if(t[e].getAttribute(&quot;data-cfhash&quot;))return t[e]}();if(t&amp;&amp;t.previousSibling){var e,r,n,i,c=t.previousSibling,a=c.getAttribute(&quot;data-cfemail&quot;);if(a){for(e=&quot;&quot;,r=parseInt(a.substr(0,2),16),n=2;a.length-n;n+=2)i=parseInt(a.substr(n,2),16)^r,e+=String.fromCharCode(i);e=document.createTextNode(e),c.parentNode.replaceChild(e,c)}t.parentNode.removeChild(t);}}catch(u){}}()/* ]]&gt; */&lt;/script&gt;\nFormat settings, CABAC           : Yes\nFormat settings, ReFrames        : 4 frames\nMuxing mode                      : Container profile=&lt;a class=&quot;__cf_email__&quot; href=&quot;/cdn-cgi/l/email-protection&quot; data-cfemail=&quot;3b6e555055544c557b08150b&quot;&gt;[email&amp;#160;protected]&lt;/a&gt;&lt;script data-cfhash='f9e31' type=&quot;text/javascript&quot;&gt;\n/* &lt;![CDATA[ */!function(){try{var t=&quot;currentScript&quot;in document?document.currentScript:function(){for(var t=document.getElementsByTagName(&quot;script&quot;),e=t.length;e--;)if(t[e].getAttribute(&quot;data-cfhash&quot;))return t[e]}();if(t&amp;&amp;t.previousSibling){var e,r,n,i,c=t.previousSibling,a=c.getAttribute(&quot;data-cfemail&quot;);if(a){for(e=&quot;&quot;,r=parseInt(a.substr(0,2),16),n=2;a.length-n;n+=2)i=parseInt(a.substr(n,2),16)^r,e+=String.fromCharCode(i);e=document.createTextNode(e),c.parentNode.replaceChild(e,c)}t.parentNode.removeChild(t);}}catch(u){}}()/* ]]&gt; */&lt;/script&gt;\nCodec ID                         : V_MPEG4/ISO/AVC\nDuration                         : 45mn 42s\nBit rate                         : 812 Kbps\nNominal bit rate                 : 835 Kbps\nWidth                            : 624 pixels\nHeight                           : 352 pixels\nDisplay aspect ratio             : 16:9\nFrame rate mode                  : Variable\nFrame rate                       : 23.976 fps\nResolution                       : 8 bits\nColorimetry                      : 4:2:0\nScan type                        : Progressive\nBits/(Pixel*Frame)               : 0.154\nStream size                      : 265 MiB (66%)\nWriting library                  : x264 core 112\n\n\nAudio\nID                               : 2\nFormat                           : AC-3\nFormat/Info                      : Audio Coding 3\nCodec ID                         : A_AC3\nDuration                         : 45mn 45s\nBit rate mode                    : Constant\nBit rate                         : 384 Kbps\nChannel(s)                       : 6 channels\nChannel positions                : Front: L C R, Side: L R, LFE\nSampling rate                    : 48.0 KHz\nStream size                      : 126 MiB (31%)\nLanguage                         : English\n\nText(subtitles)\nID                               : 3\nFormat                           : UTF-8\nCodec ID                         : S_TEXT/UTF8\nCodec ID/Info                    : UTF-8 Plain Text\nLanguage                         : Spanish","torrent":{"xt":"urn:btih:b35b3e0e273d3261bff4f3f93be56b7701ca4299","amp;dn":"Breaking.Bad.S04E12.HDTV.x264.AC3.EspSub-Psycho","amp;tr":["udp%3A%2F%2Ftracker.openbittorrent.com%3A80","udp%3A%2F%2Fopen.demonii.com%3A1337","udp%3A%2F%2Ftracker.coppersurfer.tk%3A6969","udp%3A%2F%2Fexodus.desync.com%3A6969"],"infoHash":"b35b3e0e273d3261bff4f3f93be56b7701ca4299","infoHashBuffer":{"type":"Buffer","data":[179,91,62,14,39,61,50,97,191,244,243,249,59,229,107,119,1,202,66,153]},"announce":[],"urlList":[]}}